<svg xmlns="http://www.w3.org/2000/svg" width="2555" height="713"><path d="M253 11h15l6 1v2l5-1v2h2v2h2v2h2l-1 5 5 1v3h2v8l8 1h2a1972 1972 0 0 0 23 1h35l1 3 5 3 3 3v17h125v2h2l1 9 2-1a4928250791 4928250791 0 0 1 0 139v3a51475 51475 0 0 1 1 174v7c0 2 1 3 3 5l-1 1h7v24l-2-1-1 2h2l-2 6-3 1-1 2h-2v5h2l-1 3h-2l-1 2h-2v221h-2v2h-2v2l-2 1 1 2-92 1-1 4-2-1 1 2c0 4-1 6-3 9h-5l2 9c-6 4-10 5-17 4l-4-1v-2h-6v-2l-5-1v-14l4-2-1-5-332-1 2-2-4-1v-2l-3 1V63l126 1V48l2-2 1 2 1-2c1-3 1-3 4-5l1-3h66l2-4 1 2 1-3h-2v-4h3v-5l1 2h2l-1-2 2-6 7-5 3 1v-2l9-1Zm1 17v2h-4l1 2 2-1-1 2c-1 6-1 9 2 14l-2 1h2v2h10v-2l2-1c2-7 1-13-2-19h-10Zm-6 6v10h1V34h-1Zm21 1v9h1v-9h-1Zm234 394 1 3ZM396 672l1 4 1-4h-2Zm-32 2-1 4h2l-1-4Zm28 8 1 3Zm-32 2 1 2Z" fill="#F6F6F7"/><path d="M253 11h15l6 1v2l5-1v2h2v2h2v2h2l-1 5 5 1v3h2v8l8 1h2a1972 1972 0 0 0 23 1h35l1 3 5 3 3 3v17h125v2h2l1 9 2-1a4928250791 4928250791 0 0 1 0 139v3a51475 51475 0 0 1 1 174v7c0 2 1 3 3 5l-1 1h7v24l-2-1-1 2h2l-2 6-3 1-1 2h-2v5h2l-1 3h-2l-1 2h-2v221h-2v2h-2v2l-2 1 1 2-92 1-1 4-2-1 1 2c0 4-1 6-3 9h-5l2 9c-6 4-10 5-17 4l-4-1v-2h-6v-2l-5-1v-14l4-2-1-5-332-1 2-2-4-1v-2l-3 1V63l126 1V48l2-2 1 2 1-2c1-3 1-3 4-5l1-3h66l2-4 1 2 1-3h-2v-4h3v-5l1 2h2l-1-2 2-6 7-5 3 1v-2l9-1Zm1 17v2h-4l1 2 2-1-1 2c-1 6-1 9 2 14l-2 1h2v2h10v-2l2-1c2-7 1-13-2-19h-10Zm-6 6v10h1V34h-1Zm21 1v9h1v-9h-1ZM60 104v183a2760749 2760749 0 0 1 0 211v2a87517 87517 0 0 1 0 123v2l1 7h9a1338994416 1338994416 0 0 0 18 0h12a23701 23701 0 0 0 99 0h3a25467 25467 0 0 1 174 1h7l4-3 2-7 2-4 4-6v-3l1-2 8-18 5-12 5-12 1-5h2v-2l7-16 3-8 4-7c2-4 3-7 2-11h2l1-3 1-4 1-2 5-9 1-8c1-9 6-18 10-26 4-7 3-15 3-23a3773 3773 0 0 1 0-17v-13a15569 15569 0 0 0 0-55V104H60Zm443 325 1 3ZM396 672l1 4 1-4h-2Zm-32 2-1 4h2l-1-4Zm28 8 1 3Zm-32 2 1 2Z" fill="#3760FC"/><path d="m801 97 7 7 2 2c21 20 29 48 31 76 1 27-9 55-28 75-10 11-10 11-16 15h-2v2h4l25 3a83478 83478 0 0 0 17 2c-1 7-3 13-6 19l-1 3a1684 1684 0 0 1-7 19l-1 3-1 2-1 2-4 3c-24-2-54-10-70-29-4-4-7-7-13-7h-20a110 110 0 0 1-106-139v-2c7-27 25-50 49-64 43-26 101-24 141 8Zm-120 46a60 60 0 0 0-15 44c0 16 8 28 19 39a61 61 0 0 0 87-9c10-14 14-29 10-47-4-16-13-28-27-37-24-13-54-9-74 10Zm-73 287c23 0 23 0 28 5l4 6a295 295 0 0 0 18 25 2303 2303 0 0 0 56 77l2 2 3 4 1 4 10-13a764 764 0 0 1 43-58 1665 1665 0 0 0 25-35l2-2 11-15h24v214h-57l-1-81-14 20-10 13a1076 1076 0 0 0-24 35l-2 3-1 2-2 2-5 1-3-4-1-2-2-3-4-5-1-2-8-11a845 845 0 0 1-26-36l-1-2-2-2-5-8-1 80h-57V430Zm730 2c113 0 113 0 135 18l3 2a66 66 0 0 1 6 91c-6 6-12 13-21 15l13 20 2 2a2920 2920 0 0 0 36 55l2 2 3 7a875 875 0 0 1-37 2c-26 1-26 1-33-4-4-5-6-10-8-16l-5-8-1-2-1-2a219062 219062 0 0 1-5-8l-31-50-1 88h-57V432Zm57 51v42h16c9 0 17-1 24-7 4-6 5-10 4-17 0-6-3-9-7-13-8-5-14-5-24-5h-13Zm-227-56h54a202963 202963 0 0 1 0 210l-1 7h-14a5148 5148 0 0 1-35 0l-3-14-3 4c-16 13-35 16-55 15s-37-12-50-27a99 99 0 0 1-19-74 89 89 0 0 1 28-50c13-13 35-18 53-18 17 1 32 6 44 18l1-71Zm-65 116c-7 9-8 18-7 30 2 9 8 16 15 22 10 6 20 7 31 5 10-3 17-9 23-18 4-10 5-21 2-31-4-9-11-15-20-19-16-6-33-3-44 11Zm1195-116h51l3 1v20a16343 16343 0 0 0 0 23v19a46636 46636 0 0 1 0 145v2l-1 7h-14a5148 5148 0 0 1-35 0l-3-14-3 4c-16 13-35 16-55 15s-37-12-50-27c-17-21-22-48-19-75l4-13 1-2a78 78 0 0 1 99-48c8 3 15 8 21 14l1-71Zm-65 115a35 35 0 0 0 4 49l3 3c7 6 16 8 26 7 9-2 17-5 24-12 7-10 9-19 8-31-2-9-6-16-13-22-17-11-38-9-52 6Z" fill="#000B51"/><path d="M497 74h1v2a138493 138493 0 0 0 1 321c0 2 1 3 3 5l-1 1h7v24l-2-1-1 2h2l-2 6-3 1-1 2h-2v5h2l-1 3h-2l-1 2h-2v221h-2v2h-2v2l-2 1 1 2-92 1-1 4-2-1 1 2c0 4-1 6-3 9h-5l2 9c-6 4-10 5-17 4l-4-1v-2h-6v-2l-5-1v-14l4-2-1-5-332-1 2-2-4-1v-2l344-1 3-10 7-15 7-19 2-6h2v-2l7-17 3-7 3-9a226 226 0 0 0 10-23h2v-2l2-8a220 220 0 0 0 11-23c2-4 3-7 3-11h2v-2c1-6 4-11 7-17l1-9c1-8 6-17 10-24l3-9h3v-3c0-5 1-8 4-13l4-10h2l2-10h2v-2c4-16 4-16 9-19 5 0 9 2 14 3a442897445 442897445 0 0 0 0-140v-3a156260 156260 0 0 0 0-182l1-3Zm6 355 1 3ZM396 672l1 4 1-4h-2Zm-32 2-1 4h2l-1-4Zm28 8 1 3Zm-32 2 1 2Z" fill="#3C3818"/><path d="M1305 72h54l1 119 14-19a1635 1635 0 0 1 27-36l2-2 2-3a108 108 0 0 1 9 0h4a6265 6265 0 0 0 15 0h32l-3 4-1 3a193 193 0 0 1-12 15l-2 3a1270 1270 0 0 0-12 15l-2 2-6 9-3 3a1590 1590 0 0 1-18 25l2 2 13 16a353 353 0 0 0 26 30 633 633 0 0 0 18 22l2 3 4 6a1191 1191 0 0 1-35 1c-26 1-26 1-32-4l-7-10-4-5-3-3a751 751 0 0 0-30-37l-1 58h-54V72Zm698 429 2 2 2 2c13 12 21 29 24 46v2c3 23-3 45-16 63a90 90 0 0 1-57 33c-28 2-54-3-75-21l-3-2v-2l-3-1a86 86 0 0 1-23-54v-3c-1-21 7-41 21-57 33-35 91-39 128-8Zm-88 43c-4 5-6 10-7 16v2c-1 10 3 20 9 27 7 7 16 11 26 11s18-3 25-10c8-8 10-17 10-28-1-10-5-17-12-24-8-7-16-9-26-8-11 1-19 6-25 14Zm-261-48 4 4 2 2a80 80 0 0 1 20 81l-106 1c5 9 10 16 21 20 10 1 20 1 30-5l6-5h5l10 5 13 8 3 1 5 3 2 2 2 1 2 1c0 5-3 6-5 10a91 91 0 0 1-66 24c-23 0-46-9-62-26a91 91 0 0 1-22-63c2-24 12-45 30-61 30-24 75-26 106-3Zm-76 39c-4 5-5 9-7 15h61c-2-10-5-17-14-23-13-7-31-3-40 8Zm-582-39 4 4 2 2a80 80 0 0 1 20 81l-106 1c5 9 10 16 21 20 13 2 24-1 35-9l5-2 4 2 3 2 3 1a553126341 553126341 0 0 0 21 13l2 1 5 3c0 5-3 6-5 10a91 91 0 0 1-66 24c-22 0-44-8-60-24l-5-6-2-2a86 86 0 0 1 16-120c31-20 72-24 103-1Zm-72 35v2h-2l-3 5-2 2-4 10h61c-1-8-5-15-11-21-12-8-27-7-39 2Zm-57-400h54v20a9690 9690 0 0 0 0 54c0 17 0 17 7 31 6 6 10 6 18 6 5 0 9-2 13-6 5-7 6-14 6-22a339033988 339033988 0 0 1 1-34v-49h54v33a5939 5939 0 0 0 0 43c0 21-3 38-15 56l-1 2a78 78 0 0 1-50 26c-21 2-43-2-60-16l-2-2a75 75 0 0 1-25-59v-3a3642 3642 0 0 1 0-31v-49Zm1631 366 6 9a636 636 0 0 1-27 30l-3-2-4-2-2-1c-7-4-14-6-23-6h-3l-8 2v6c8 4 16 8 25 10 18 7 40 15 49 33 5 10 5 23 2 34-5 15-15 24-29 31a101 101 0 0 1-75 3c-12-4-22-12-29-22 0-5 2-8 5-12l3-3 1-2 9-11 3-4 2-3 2 1v2l2 1 7 4a77 77 0 0 0 17 8 61 61 0 0 0 18 1c4 0 7 0 11-3v-5c-4-4-9-6-14-8l-3-1-15-5c-16-7-32-15-40-32-2-6-3-11-3-17v-3c0-13 6-25 16-34 28-24 71-20 100 1ZM1280 142l2 2-5 9-1 3-2 3-2 2a4460 4460 0 0 1-7 12l-3 3-1 3-2 2c-4 0-6-1-10-3-10-5-20-7-32-3-9 3-16 8-20 16-5 12-6 23-1 35 3 8 9 14 17 18 11 4 22 4 33 0l8-5h4l5 5 2 2 2 3 1 2a1520 1520 0 0 1 12 16l1 2 3 6c-21 16-47 22-73 19-23-4-43-16-58-35a90 90 0 0 1-15-63 83 83 0 0 1 55-65l2-1c28-9 61-5 85 12Zm563 356c0 5-3 9-6 13l-3 4-1 3-8 12-3 4-2 3-8-3a37 37 0 0 0-55 15c-4 10-4 21 0 31 5 10 11 16 21 20a42 42 0 0 0 36-5l6-2 3 4 1 2a3239 3239 0 0 1 13 17l2 3 3 3c3 4 3 4 3 7-6 10-26 16-37 18-25 5-51 1-72-13l-13-11-2-2a74 74 0 0 1-21-47c-1-27 4-48 23-69 10-9 21-16 34-20l2-1c27-9 61-4 84 14Zm323-19-8 53-10 1c-10 0-17 2-25 9-8 9-11 21-11 33v2a2742 2742 0 0 0-1 26v41h-54V486h50l3 17 3-4 16-11 3-1c10-6 22-8 34-8Z" fill="#000B51"/><path d="M491 453c3 4 2 7 2 11v12a7862 7862 0 0 0 0 24v170h-96c-1-4 0-7 2-11l1-2 6-11 1-3 2-6 4-9 4-12h2v-2l2-4 2-8h2v-3l2-7h2v-4h2v-3l2-7h2v-2l2-7 1-3 2-4c3-3 4-6 5-10v-2l2-5h2v-2l7-17 4-1v-2l2-4v-5c1-5 2-8 5-12l4-1v-3c2-6 3-11 7-16l3-9 3-3 2-6 5-11Z" fill="#3861FB"/><path d="M253 11h15l6 1v2l5-1v2h2v2h2v2h2l-1 5 5 1v3h2v8l8 1h2a1972 1972 0 0 0 23 1h35l1 3 5 3 3 3v17h125v2l-128 1-1 8-3 3h-19a4797 4797 0 0 0-22 0h-17a14120 14120 0 0 1-137 0h-2c-4 0-6 0-9-2l-1-9-129-1-1 4v-7l126 1V48l2-2 1 2 1-2c1-3 1-3 4-5l1-3h66l2-4 1 2 1-3h-2v-4h3v-5l1 2h2l-1-2 2-6 7-5 3 1v-2l9-1Zm1 17v2h-4l1 2 2-1-1 2c-1 6-1 9 2 14l-2 1h2v2h10v-2l2-1c2-7 1-13-2-19h-10Zm-6 6v10h1V34h-1Zm21 1v9h1v-9h-1Z" fill="#696534"/><path d="M1056 131h54v158h-54V131Z" fill="#000B51"/><path d="M91 402h336v18c-2 2-4 1-6 1h-8a6754 6754 0 0 0-15 0h-13a26154 26154 0 0 1-287 0h-3l-3-1-1-18Z" fill="#D1D1D1"/><path d="M91 452h336v18a446753 446753 0 0 1-143 0h-3a164004 164004 0 0 0-180 0h-7l-3-1v-17Z" fill="#D3D3D3"/><path d="M91 501h334v18H91v-18Zm2-198h333v17l-3 1h-7a2395208805 2395208805 0 0 1-19 0h-12a24373 24373 0 0 1-150 0h-3a1200540 1200540 0 0 0-139 0v-18Z" fill="#D2D2D2"/><path d="M93 353h332v17H93v-17Z" fill="#D1D1D1"/><path d="M59 101h15a3168 3168 0 0 0 19 0h14a12774 12774 0 0 1 189 0h7a114520 114520 0 0 1 145 0h4l7 1a457948 457948 0 0 1 0 146v3a169022 169022 0 0 0-1 203h-1V104H60l1 527h243a7435 7435 0 0 1 72 1l4-1h3l4-2 1-2-1 5-4 2v4h-2v-4h-2a133679 133679 0 0 1-134 0h-3a49680 49680 0 0 0-168 0H64c-4 0-5 0-7-3v-9l-1-2 1-9a4220 4220 0 0 0 0-25v-19a14436 14436 0 0 1 0-69v-2a225526 225526 0 0 0 0-172v-80a501824 501824 0 0 1 0-131v-3c0-4 0-6 2-9Z" fill="#3A5DE9"/><path d="M25 66a67779 67779 0 0 1 117 0h10l3 1a74 74 0 0 1 0 7v2l11 1h11a15082 15082 0 0 1 22 0h14a38614 38614 0 0 0 140 0h2c5 0 5 0 8-2l1-4 1-5h130v336h-5l-1-2h3V68l-10 1h-15a5764 5764 0 0 1-101 0v3c0 4 0 4-3 7s-7 3-11 3h-11a2776 2776 0 0 0-22 0l-17-1a9797 9797 0 0 1-143 0v-2h-2l-3-1-1-11-127 1v93a831878 831878 0 0 0 0 161v3a510454 510454 0 0 1 1 333v3l1 8 342-1 3-10 3-2-5 14-347 1V462a3586107 3586107 0 0 0 0-240v-3a113552 113552 0 0 0 0-139v-8l1-6Z" fill="#3750B2"/><path d="m485 399 10 3v2h3v3l8 1c0 9 0 9-2 14h-2v2c0 4-2 8-4 12h-2v5h-2v7l-1 2-2 1-3 4-1 3-5 11-1 3-3 3c-2 3-2 5-2 8h-2l-2 13h-2v3c-3 2-6 2-10 2l-2-3-12-4-2 5c-4-11 2-19 6-28l3-6 3-9h3v-3c0-5 1-8 4-13l4-10h2l2-10h2v-2c5-19 5-19 12-19Z" fill="#696435"/><path d="M1106 72c6 6 8 13 7 22-1 7-4 13-10 18-9 5-18 6-28 5-7-2-14-7-18-13s-5-13-3-20l6-12h2v-2c15-8 31-11 44 2Z" fill="#000B51"/><path d="M455 529h2v103h-43c1-11 1-11 3-16h2v-2l2-4 2-8h2v-3l2-7h2v-4h2v-3l2-7h2v-2l2-7 1-3 2-4c3-3 4-6 5-10v-2l2-5h2v-2c1-5 3-10 6-14Z" fill="#F5F4F6"/><path d="M300 217a62465 62465 0 0 1 111 0h10l4 1v17H300v-18Z" fill="#D2D2D2"/><path d="M356 136h16l1 7v2l1 3v10l21 1v16l-1 3h-8l-3 1h-10v10l-1 3v6l-1 3h-11l-7-1v-8a483394954 483394954 0 0 0 0-13h-19l-4-2v-18l7-1h15v-18c0-3 1-4 4-4Z" fill="#3760FB"/><path d="M62 105h394v19l-2 1v-17h-6a573037 573037 0 0 1-158 0h-4a216410 216410 0 0 0-211 0h-3l-5-1-3 2a72 72 0 0 0 0 11v9a5465 5465 0 0 1 0 24v19a19812 19812 0 0 0 0 278v179h319v2H62V105Z" fill="#E5E7FE"/><path d="M25 66h129v1L26 68v93a831878 831878 0 0 0 0 161v3a510454 510454 0 0 1 1 333v3l1 8 342-1 3-10 3-2-5 14-347 1V462a3586107 3586107 0 0 0 0-240v-3a113552 113552 0 0 0 0-139v-8l1-6Z" fill="#2E50C4"/><path d="M27 670h342v3h-2v2c-1 5-1 9-4 14l2 8h4v2h5v3l3 1-8-1v-2h-6v-2l-5-1v-14l4-2-1-5-332-1 2-2-4-1v-2Zm337 4-1 4h2l-1-4Zm-4 10 1 2Z"/><path d="M62 102h397v224a179832 179832 0 0 1-1 128h-1V104H61l1-2Z" fill="#748BE4"/><path d="m262 11 12 1v2l5-1v2h2v2h2v2h2l-1 5 5 1v3h2v8l8 1h2a1972 1972 0 0 0 23 1h35l1 3 5 3 3 3v17h125v2l-130 1-3 9a83028 83028 0 0 1-194 0h-2c-6 0-6 0-8-2v-8c3 2 3 4 5 7h196l3-7h2V46l-75-1V34h-2v-6h-2v-4h-2l-1-2c-2-3-4-4-7-5v-2h-2l-3-1h-3l-2-1-1-2Z" fill="#54563F"/><path d="M59 104h1l1 527h243a7435 7435 0 0 1 72 1l4-1h3l4-2 1-2-1 5-4 2v4h-2v-4a424257893 424257893 0 0 0-137 0h-3a149438 149438 0 0 0-168 0H63l-4-1V104Z" fill="#617CE8"/><path d="M253 11h4l-1 2h-7v2l-8 1v2h-2v2h-2l-1 9h-2v6h-2v2l1 2v5c-2 2-5 1-8 1h-2a2588 2588 0 0 1-26 1h-41v17l-1 3h-37a20665 20665 0 0 1-93 0l-1 4v-7l126 1V48l2-2 1 2 1-2c1-3 1-3 4-5l1-3h66l2-4 1 2 1-3h-2v-4h3v-5l1 2h2l-1-2 2-6 7-5 3 1v-2l9-1Z" fill="#22220C"/><path d="M497 74h1v2a138493 138493 0 0 0 0 137v3a51475 51475 0 0 1 1 181c0 2 1 3 3 5l-1 1h7v24l-2-1-1 2h2l-2 6-3 1-1 2h-2v5h2l-1 3h-2l-1 2h-2v3h-2l1-9h2v-5h2v-2l3-7v-3l1-2h2l2-14-8-1v-3h-3a429535 429535 0 0 1 0-141v-2a158662 158662 0 0 0 1-177v-7l1-3Zm6 355 1 3Z"/><path d="M491 453c3 4 2 7 2 11v12a7862 7862 0 0 0 0 24v170h-96c-1-4 0-7 2-11l1-2 5-9 2-5c1-4 2-6 5-9l-1 8h-2l1 2c0 3-1 4-3 7l-3 9h-2v7h90l-1-207c-3 3-3 8-4 13-1 4-2 7-5 10l-2 6-2 3-1 3c-1 4-2 6-5 9h-3l-1 3-3 8h-2c-1-6 1-8 4-13l4-1v-3c2-6 3-11 7-16l3-9 3-3 2-6 5-11Z" fill="#304DB8"/><path d="m383 634 2 1-7 16-2 3-3 6-3 9H28v-2l339-1 3-7a791 791 0 0 1 5-10l1-1v-4l3-6 2-1 2 1v-4Z" fill="#3F66E9"/><path d="M91 402h336v18c-2 2-4 1-6 1h-8a6754 6754 0 0 0-15 0h-13a26154 26154 0 0 1-287 0h-3l-3-1-1-18Zm3 1v17h331v-17H94Z" fill="#E2E2E2"/><path d="M27 670h342v3l-342-1v-2Z" fill="#00041A"/><path d="M490 450h5v218h-2v-3a180751 180751 0 0 0-1-203l-1-8-1 3-2 5-1 2-2 6-3 1-1 4-3 9c-3 4-4 7-5 11l-2 6h-2l-2 1-2 5-1 2v5l-4 11-4 2-2 5-1-4 1-2 1-2 4-3v-2l3-13h2v-5l6-2v-3h2v-8l2-5h2v-3c0-4 1-4 4-7l2-6 4-9 1-2 3-6Z" fill="#233477"/><path d="M24 70h1v172a2216749 2216749 0 0 0 0 81v3a508744 508744 0 0 1 1 328v3l1 13-3 1V70Z" fill="#2645B7"/><path d="M35 67v1l-3 1-4 2a272 272 0 0 0 0 12v11a21257 21257 0 0 1 0 126v3a1020401 1020401 0 0 1-1 271v169h-1V68l9-1Z" fill="#335AEF"/><path d="M459 104h1v331l3-1 2-4v-3l2-10 3-3 2-1v-2c0-5 2-8 5-12 3-2 4-2 7-2h4l1 3h-7c-4 6-6 13-9 20h-2v3c0 3 0 4-2 7h-2v2l-3 8-1 3-3 5-1 4v4h-2v-2a263 263 0 0 0 1-40v-13a26183 26183 0 0 0 1-152v-3a1294303 1294303 0 0 1 0-142Z" fill="#4165E4"/><path d="M394 665h1v5h96v2l-2 1 1 2-92 1-1 4-2-1 1 2c0 4-1 6-3 9h-5l2 9-7 4-3-1h2v-2h2v-4h2v-3c0-7 3-13 6-20l2-8Zm2 7 1 4 1-4h-2Zm-4 10 1 3Z" fill="#000415"/><path d="m262 11 12 1v2l5-1v2h2v2h2v2h2l-1 5 5 1v3h2v8l8 1h2a1972 1972 0 0 0 23 1h35l1 3 3 3h-76V34h-2v-6h-2v-4h-2l-1-2c-2-3-4-4-7-5v-2h-2l-3-1h-3l-2-1-1-2Z" fill="#21200A"/><path d="M356 136h16l1 7v2l1 3v10l21 1v16l-1 3h-8l-3 1h-10v10l-1 3v6l-1 3h-11l-7-1v-8a483394954 483394954 0 0 0 0-13h-19l-4-2v-18l7-1h15v-18c0-3 1-4 4-4Zm1 6-1 8v7h-2v3h-21l-1 9v4l1 4a88 88 0 0 0 8 0l3 1h11v21h16l1-21 22-1v-17h-23l-1-20h-8c-3 0-3 0-5 2Z" fill="#7C93EE"/><path d="M154 66h2l1 6 1 3a189 189 0 0 0 10 0h9a14075 14075 0 0 1 22 0h17a50196 50196 0 0 0 144 1l2-9h3l-2 10c-3 2-6 1-10 1h-11a4797 4797 0 0 0-22 0h-17a14120 14120 0 0 1-137 0h-2c-4 0-6 0-9-2l-1-5v-5Z" fill="#586583"/><path d="M497 451h1v211l-2-1a178123 178123 0 0 1 0-201v-2l1-7Z"/><path d="M59 101h396v1h-3a610707 610707 0 0 0-165 0h-3a226997 226997 0 0 1-215 1h-4l-6 1v-3Z" fill="#4869E5"/><path d="M487 68h5v332l-4-1v-2l-10 2 1-3h12a141137 141137 0 0 0 0-139v-3a51807 51807 0 0 1-1-182v-2l-3-2Z" fill="#3D62EE"/><path d="M363 44h2l3 3v17h125v2H363V44Z" fill="#0D1945"/><path d="M460 106h1l1 325 2-1-1 5h-3V106Z" fill="#3B61EF"/><path d="M457 525h2a15853 15853 0 0 1 0 98v10c-3 2-4 2-7 2h-6a1502058847 1502058847 0 0 0-34-1l1-8 2-1-1 7h43V529h-2l2-4Z" fill="#627EE4"/><path d="M260 25h5v2h4v2h2v4h2c1 6 0 11-4 16l-1 1-1 2-7 1h-3l-6-2v-2l-4-1v-3h-2V32h2v-3h2v-2c4-2 7-2 11-2Zm-6 3v2h-4l1 2 2-1-1 2c-1 6-1 9 2 14l-2 1h2v2h10v-2l2-1c2-7 1-13-2-19h-10Zm-6 6v10h1V34h-1Zm21 1v9h1v-9h-1Z" fill="#252513"/><path d="M151 46c5 5 3 13 3 20H25l-1 4v-7l126 1V48l1-2Z" fill="#0A1744"/><path d="M411 634h1l-1 8h-2l1 2c0 3-1 4-3 7l-3 9h-2v7h90c-3 3-7 2-11 2h-3a1926 1926 0 0 1-31 1h-50c-1-4 0-7 2-11l1-2 6-11 1-3 4-9Z" fill="#3D60E7"/><path d="M287 25h2v3h2v8l8 1h2a1972 1972 0 0 0 23 1h35l1 3-72 1V31h-2l1-6Z"/><path d="M395 160h1v20l-19 1-2 14c0 3 0 5-2 8h-13c-7 0-7 0-9-2v-21h-20v-3l1 1a81 81 0 0 0 7 0l4 1h10l1 21h17v-10l1-3v-6l1-3h8l3-1h10l1-17Z" fill="#CDD5FB"/><path d="m485 399 10 3v2h-8l-6 1 1 2c0 4-2 5-4 8l-1 4-1 3-3 1v3c0 4 0 4-3 7l-1 5-5 11-5 1 8-20h2l2-10h2v-2c5-19 5-19 12-19Z" fill="#605D3E"/><path d="M354 136h18l1 7v2l1 3v10l21 1v18h-1v-17h-23l-1-12v-8h-5l-3 1-4 1-1 8v7h-3v-21Z" fill="#486AE8"/><path d="M484 397h4l1 3h-7c-4 6-6 13-9 20h-2v3c0 3 0 4-2 7h-2v2a48 48 0 0 1-4 11l-3 5-1 4v4h-2a1286 1286 0 0 1 1-9l1-5h2v-3l5-15 1-6 3-4 2-1v-2c0-5 2-8 5-12 3-2 4-2 7-2Z" fill="#4466E6"/><path d="M226 34c2 2 2 2 2 8l-70-1 1-3h66l1-4Z"/><path d="m491 453 1 4-1 2c-3 4-3 9-4 14-1 4-2 7-5 10l-2 6-2 3-1 3c-1 4-2 6-5 9h-3l-1 3-3 8h-2c-1-6 1-8 4-13l4-1v-3c2-6 3-11 7-16l3-9 3-3 2-6 5-11Z" fill="#4A6EE1"/><path d="M490 450h3v6l-2-2-1 3-2 5-1 2-2 6-3 1-1 4-3 9c-3 4-4 7-5 11l-2 6h-2l-2 1-2 5-1 2v5l-4 11-4 2-2 5-1-4 1-2 1-2 4-3v-2l3-13h2v-5l6-2v-3h2v-8l2-5h2v-3c0-4 1-4 4-7l2-6 4-9 1-2 3-6Z" fill="#4F596F"/><path d="M253 11h4l-1 2h-7v2l-8 1v2h-2v2h-2l-1 9h-2v6h-2a150687500 150687500 0 0 0 1 9c-2 2-5 1-8 1h-2a2588 2588 0 0 1-26 1h-41v-2h75l-1-20 1 2h2l-1-2 2-6 7-5 3 1v-2l9-1Z" fill="#504C25"/><path d="M455 529h2v103h-43v-1h42l-1-90-3-1v2l-3 7h-2v-4h2v-2c1-5 3-10 6-14Z" fill="#BAC4F4"/><path d="M402 672h7a3626 3626 0 0 1 31 0l17 1h32l1 2-92 1-1 4-2-1c2-7 2-7 7-7Z"/><path d="M374 160h20v17l-22 1-1 21h-16v-21l-2-1h3l1 7v14h12v-4a6640 6640 0 0 1 0-9v-5l1-4 7-2h15l1-12h-18l-1-2Z" fill="#4466EA"/><path d="M508 403v24l-2-1-1 2h2l-2 6-3 1-1 2h-2v5h2l-1 3h-2l-1 2h-2v3h-2l1-9h2v-5h2v-2l3-7v-3l1-2h2l2-14-8-1v-3l10-1Zm-5 26 1 3Z" fill="#272613"/><path d="M455 580h1v51h-42c1-11 1-11 3-15h2l1-3v2l-2 9h-2v5h38l1-49Z" fill="#E2E4FE"/><path d="M394 665h1l1 11h-2l1 4v8l-2 2h-5l2 9-7 4-3-1h2v-2h2v-4h2v-3c0-7 3-13 6-20l2-8Zm-2 17 1 3Z" fill="#232513"/><path d="m367 677-3 10c-1 3 0 6 1 10h4v2h5v3l3 1-8-1v-2h-6v-2l-5-1v-14l4-2 1-3 4-1Zm-7 7 1 2Z" fill="#110F06"/><path d="M387 631v5l-1 3-1 3-2 3v3l-3 6-1 6v3l-5 4-1 3-2-1c3-9 5-17 10-25l4-10 2-3Z" fill="#2D2E28"/><path d="M412 627v5l-2 6-3 6c-1 5-2 7-5 11-4 7-4 7-5 15h-2v-9h3v-3l3-7 2-7h2v-8l2-2 1 1 4-8Z" fill="#313E56"/><path d="M411 634h1l-1 8h-2l1 2c0 3-1 4-3 7l-2 6-1 3-2 1-1 4-1 2v2h-4l9-21 2-5 4-9Z" fill="#4866C8"/><path d="M456 526h2v105h-1V529h-2l1-3Z" fill="#8A9EE7"/><path d="M333 160h21l-1 2h-8l-3 1c-4-1-4-1-7 1v11h15l2 2h-17l-3-1v-11l1-5Z" fill="#4467E7"/><path d="m485 399 10 3v2h-14v3c-1 4-1 5-4 7l-6 16h-2l2-10h2v-2c5-19 5-19 12-19Z" fill="#51565C"/><path d="M477 405v5l-1 4-2 3-1 3h-2v3c0 3 0 4-2 7h-2v2a48 48 0 0 1-4 11l-3 5-1 4v4h-2a1286 1286 0 0 1 1-9l1-5h2v-3l4-8 2-5h2v-3l4-8 2-7 2-3Z" fill="#4E66BC"/><path d="M354 136h18l1 7v2l1 3v10l21 1v18h-1v-17h-23v-23h-17v-1Z" fill="#7F97ED"/><path d="m363 44 4 1 1 6v13l-5 1V44Z" fill="#0B0B05"/><path d="m262 11 12 1v2l5-1v2h2v2h2v2h2l-1 5h2v2h-3v-2h-2l-1-2c-2-3-4-4-7-5v-2h-2l-3-1h-3l-2-1-1-2Z" fill="#1D1A0E"/><path d="m383 634 2 1-7 16-2 3-4 9h-1c-1-5 2-9 4-14l1-1v-4l3-6 2-1 2 1v-4Z" fill="#4869DB"/><path d="M395 160h1v20h-23v19h-1v-18l1-3h8l3-1h10l1-17Z" fill="#AEBCF4"/><path d="m351 137 2 1-1 20-22 1v18c-3-3-3-4-3-8l-1-3v-2h2v-3l2-4h21v-20Z" fill="#D6DAFD"/><path d="M253 11h4l-1 2h-7v2l-8 1v2h-2v2h-2v2h-2v4h-2l-1-5c2-4 5-7 9-8l3 1v-2l9-1Zm11 17 6 3v3h2v8h-2v4h-2v2l-3-1 1-2c1-6 0-11-2-17Z" fill="#050401"/><path d="m248 30 5 1v2c-1 5-1 9 1 14l-4 1v-2h-2v-4h-2v-9h2v-3Z" fill="#060501"/><path d="M254 25h11v2h4v2h2v4h2a234 234 0 0 1 0 8c0 2-1 3-3 5v-4h2v-8h-2v-3c-3-2-6-2-10-3h-6v-3Z" fill="#2F2C15"/><path d="M455 530h1v11l-4-1v2l-3 7h-2v-4h2v-2c1-5 3-10 6-13Z" fill="#D2CFD6"/><path d="M482 471h1v7h-2v2c-4 15-4 15-9 21l-1-2 2-5 1-3 5-12 3-8Z" fill="#52669C"/><path d="M467 430h2a2800 2800 0 0 1-3 12v4l-3 4h-4l8-20Z" fill="#535455"/><path d="M498 433h1v9h2l-1 3h-2l-1 2h-2v3h-2l1-9h2v-5h2v-3Z" fill="#46452A"/><path d="M419 613c2 4 0 7-1 11h-2v5h24v1h-26c1-10 1-10 3-14h2v-3Z" fill="#ECEBF7"/><path d="m446 549 1 9-3 4-5 11-2 1 6-18 3-7Z" fill="#D3D0C5"/><path d="M235 22h2l-1 7h-2v6h-2l1 9c-2-2-2-3-2-6l-1-3V24l1 2h4v-4Z" fill="#4B4825"/><path d="M412 634h34v1l-31 1-3 7-3 1v-2h2l1-8Z" fill="#4064EE"/><path d="M387 631v4c-2 6-4 11-7 15l-3 6v-4l1-3 1-2 3-5 3-9 2-2Z" fill="#333F54"/><path d="M462 511h1c0 6 0 9-3 14l-4 2-2 5-1-4 1-2 1-2 4-3v-2l3-8Z" fill="#4A5E9B"/><path d="M151 46c2 2 2 2 2 6a330 330 0 0 1 0 12h-3V54l1-8Z"/><path d="m253 26 1 4h-6v3h-2v9h2v4h2v3l-3-1v-3h-2V32h2v-3h2v-2l4-1Z" fill="#3B3A1E"/><path d="m360 681 3 1v5h-2v9l-3 1v-11c0-3 0-3 2-5Zm0 3 1 2Z" fill="#010100"/><path d="M420 550c2 3 1 6 0 9h-2v2l-3 5-1 7-3 1 4-13h2v-2c0-4 1-6 3-9Z" fill="#767362"/><path d="m472 491 2 3-3 7-4 1-2 5-3 4v-5h2v-5l6-2v-3h2v-5Z" fill="#455166"/><path d="m461 511 1 4-1 2-1 2-3 3-3 7h-2l4-11 2-3 3-4Z" fill="#2D2D22"/><path d="m488 397 1 3h-3l-6 1-3 5h-1c0-5 0-5 2-8 3-2 6-1 10-1Z" fill="#4A65CC"/><path d="m367 677-3 10v10l-3-1v-9h2v-9l4-1Z" fill="#1F1D0D"/><path d="M479 474c0 6 0 10-4 14l-1 5-2-4 2-6h2v-3c0-3 0-3 2-5l1-1Z" fill="#565A4D"/><path d="M412 627v7l-6 9h-1v-7l2-2 1 1 4-8Z" fill="#2D3734"/><path d="M477 405v5l-1 4-2 3-1 3h-2v3c0 3-1 4-3 7 1-6 2-10 5-15l1-3 3-7Z" fill="#506299"/><path d="M392 678h2l2 6-3 6h-2l-1-8h2v-4Zm0 4 1 3Z" fill="#010200"/><path d="m387 693 3 3v3l-7 4-3-1h2v-2h2v-4h3v-3Z" fill="#060501"/><path d="M445 549v4l-1 3-1 3-3 5-2 6v-8h2v-4h2v-2c0-3 1-5 3-7Z" fill="#625E47"/><path d="m248 16-10 8-1-4h2v-2h2v-2h7Z" fill="#57542F"/><path d="M400 653h1l-4 16-2 1v-9h3v-3l2-5Z" fill="#2B3641"/><path d="M446 493c10 3 10 3 14 6v2l4 1h-6v-2h-2l-2-1-1-2-4-1h-4l1-3Z" fill="#585327"/><path d="M259 11c4 0 7 1 11 3l-6 1h-6l-2-1h-7v-1h3l7-2Z" fill="#5A552B"/><path d="M253 11h4l-1 2h-7v2l-6 1 1-4 9-1Z" fill="#2D2B13"/><path d="M432 582c2 5 0 9-2 14h-3v-4h2v-4h2l1-6Z" fill="#C7C7B8"/><path d="m491 453 1 4-3 5-2 8h-2c1-6 3-11 6-17Z" fill="#5069BF"/><path d="M440 502a500 500 0 0 0-3 15h-2l5-15Z" fill="#7B7968"/><path d="M422 600h3v2h-2v3c0 4-2 7-4 11h-1v-7l3-3 1-6Z" fill="#6C6C52"/><path d="m156 66 5 7v3l-5-2v-8Z" fill="#515051"/><path d="M227 29h3l1 8v5h-2v-9h-2v-4Z"/><path d="M503 425h2v3h2l-2 6-3 1-1-5 2-1v-4Z" fill="#020100"/><path d="m363 66 2 1-2 10-4 1 1-5 1-3 2-4Z" fill="#4E609A"/><path d="M283 28h2v6h2v10l-2-1-1-8v-2l-1-5Z" fill="#57522C"/><path d="M283 26h3v5h2v13h-1V34h-2v-6h-2v-2Z" fill="#343019"/><path d="m383 634 2 1-5 12h-1v-7l4-2v-4Z" fill="#4663B0"/><path d="m268 46 2 1-5 6h-10v-1h8l1-4h4v-2Z" fill="#3F3D20"/><path d="M467 430h2l-1 4v3l-3 5h-2l4-12Z" fill="#525A65"/><path d="M235 22h2l-1 7-5 1-1-6 1 2h4v-4Z" fill="#2D2B16"/><path d="M477 486v7l-1 2-2 3-3 3 4-12h2v-3Z" fill="#546FC0"/><path d="M497 439h2v3h2l-1 3h-2l-1 2h-2v-5h2v-3Z" fill="#080802"/><path d="M364 67h2v7l-2 4-3-1 2-2 1-4v-4Z" fill="#4666DF"/><path d="M375 658h1c0 5-1 8-3 12l-2-1 1-5 1-3 2-3Z" fill="#293148"/><path d="m410 574 1 2-1 2-2 9-3 1c1-4 2-11 5-14Z" fill="#7A7C63"/><path d="M484 470h3l-1 4v3l-1 2-2 1v-7l1-3Z" fill="#4463DE"/><path d="m262 46 2 2-3 1h-6l-1-2 8-1Z"/><path d="M245 37h1v5h2v4h2v3l-3-1v-3h-2v-8Z" fill="#484324"/><path d="M273 37h1c0 4 0 7-2 10s-3 3-6 4l1-2c4-4 6-7 6-12Z" fill="#5C572E"/><path d="M387 686h3v4h-2l-1 6h-1l1-10Z" fill="#181708"/><path d="M399 660h1l-1 10-3-1 3-9Z" fill="#49619F"/><path d="M419 613c2 4 0 7-1 11l-3 1 2-9h2v-3Z" fill="#B9B5A9"/><path d="M420 550c2 3 1 6 0 9h-2l-1 4v-7l1-3 2-3Z" fill="#6B684F"/><path d="m461 443-1 8-1 3v2h-2l1-12 3-1Z" fill="#6B7794"/><path d="M475 406c0 4-1 9-4 12l-1 1 1-5h2v-3c0-3 0-3 2-5Z" fill="#4F6DD4"/><path d="M397 603h1v8l-4 2 3-10Z" fill="#77755B"/><path d="M440 563c1 4 1 6-1 10l-2 1 3-11Z" fill="#C7C4B4"/><path d="M456 526h2v15h-1v-12h-2l1-3Z" fill="#8898D6"/><path d="M490 446h3v4l-5 2 2-6Z" fill="#5A5C42"/><path d="M35 67v1l-3 1c-3 1-3 1-4 4l-1 2h-1v-7l9-1Z" fill="#3C5DE7"/><path d="m24 660 3 10-3 1v-11Z" fill="#132472"/><path d="M491 457h1v9l-2-2-2 2 3-9Z" fill="#4465E2"/><path d="M450 540v7l-1 2h-2v-4h2l1-5Z" fill="#C9C7B3"/><path d="m400 651-2 10h-1v-8l3-2Z" fill="#333622"/><path d="M412 627v6l-3 4c1-4 1-7 3-10Z" fill="#474D5D"/><path d="m429 527 1 2-2 4-1 2-1 2v-7h2l1-3Z" fill="#C5C1B5"/><path d="M461 511v6l-1 2-1 2h-1c0-7 0-7 2-9l1-1Z" fill="#2E374E"/><path d="m471 501-2 5-4 1c2-6 2-6 6-6Z" fill="#4864C7"/><path d="M454 498h5l1 3 4 1h-6v-2l-4-2Z" fill="#4F4A1F"/><path d="m490 463 2 3-1 3h-2l-2 1 3-7Z" fill="#3D61ED"/><path d="M497 663h1v5l-2-1 1-4Zm3-225h2v3h-2v-3ZM390 690l1 4Zm-34 1h2v2h-2v-2ZM497 68v3Z"/></svg>